# xmcd CD database file
#
# Track frame offsets:
#	150
#	13609
#	27210
#	41154
#	53628
#	66477
#	78570
#	91432
#	104589
#	116999
#	129657
#	143205
#	156867
#	170017
#	182351
#	194055
#	205902
#	217490
#	230925
#	244877
#	256113
#	270325
#	282588
#	295218
#	306818
#
# Disc length: 4266 seconds
#
# Revision: 0
# Processed by: cddbd v1.5.2PL0 Copyright (c) Steve Scherf et al.
# Submitted via: CDex 1.70beta2
#
DISCID=8e10a819
DTITLE=Various Artist - Jazz Roads CD117 - Swing - Duke Ellington Small Groups Vol.1 (1936-37)
DYEAR=2006
DGENRE=Jazz
TTITLE0=Barney Bigard And His Jazzopators - Clouds In My Heart
TTITLE1=Barney Bigard And His Jazzopators - Frolic Sam
TTITLE2=Barney Bigard And His Jazzopators - Caravan
TTITLE3=Barney Bigard And His Jazzopators - Stompy Jones
TTITLE4=Cootie Williams And His Rug Cutters - I Can't Believe That You're In Love With Me
TTITLE5=Cootie Williams And His Rug Cutters - Downtown Uproar
TTITLE6=Cootie Williams And His Rug Cutters - Digga Digga Doo
TTITLE7=Cootie Williams And His Rug Cutters - Blue Reverie
TTITLE8=Cootie Williams And His Rug Cutters - Whispering Tiger (Tiger Rag)
TTITLE9=The Gotham Stompers - My Honey's Lovin' Arms
TTITLE10=The Gotham Stompers - Did Anyone Ever Tell You
TTITLE11=The Gotham Stompers - Alabamy Home
TTITLE12=The Gotham Stompers - Where Are You
TTITLE13=Barney Bigard And His Jazzopators - Solace (Lament For A Lost Love)
TTITLE14=Barney Bigard And His Jazzopators - Four And One Half Street
TTITLE15=Barney Bigard And His Jazzopators - Demi-Tasse (Each Day)
TTITLE16=Barney Bigard And His Jazzopators - Jazz A La Carte
TTITLE17=Johnny Hodges And His Orchestra - Foolin' Myself
TTITLE18=Johnny Hodges And His Orchestra - A Sailboat In The Moonlight
TTITLE19=Johnny Hodges And His Orchestra - You'll Never Go To Heaven
TTITLE20=Johnny Hodges And His Orchestra - Peckin'
TTITLE21=Barney Bigard And His Jazzopators  - Get It Southern Style
TTITLE22=Barney Bigard And His Jazzopators  - Moonlight Fiesta
TTITLE23=Barney Bigard And His Jazzopators  - Sponge Cake And Spinach
TTITLE24=Barney Bigard And His Jazzopators  - If You're Ever In My Arms
EXTD=YEAR: 2006
EXTT0=
EXTT1=
EXTT2=
EXTT3=
EXTT4=
EXTT5=
EXTT6=
EXTT7=
EXTT8=
EXTT9=
EXTT10=
EXTT11=
EXTT12=
EXTT13=
EXTT14=
EXTT15=
EXTT16=
EXTT17=
EXTT18=
EXTT19=
EXTT20=
EXTT21=
EXTT22=
EXTT23=
EXTT24=
PLAYORDER=
